# xmcd
#
# Track frame offsets: 
#        150
#        12318
#        25137
#        37471
#        48376
#        60485
#        75198
#        86739
#        100143
#        113857
#        126332
#        137957
#        150850
#        165526
#        177209
#        187888
#        201099
#        213883
#        228730
#        241590
#
# Disc length: 3390 seconds
#
# Revision: 2
# Processed by: cddbd v1.5.2PL0 Copyright (c) Steve Scherf et al.
# Submitted via: ExactAudioCopy v1.3
#
DISCID=000d3c14
DTITLE=Various Artist - Chicago Blues: The Absolutely Essential CD3
DYEAR=2012
DGENRE=Blues
TTITLE0=Bright Lights, Big City" - Jimmy Reed 
TTITLE1=Got My Mojo Working - Muddy Waters 
TTITLE2=Juke - Little Walter 
TTITLE3=Wang Dang Doodle - Howlin' Wolf 
TTITLE4=Just Can't Say - Willie Nix 
TTITLE5=Bout The Break Of Day - Junior Wells
TTITLE6=Don't Start Me Talking - Sonny Boy Williamson
TTITLE7=Do Me Right - Lowell Fulson 
TTITLE8=I'm Ready - Muddy Waters 
TTITLE9=How Many More Years - Howlin' Wolf 
TTITLE10=Hush Hush - Jimmy Reed 
TTITLE11=All Night Long - Magic Sam
TTITLE12=I Could Cry - Junior Wells
TTITLE13=My Babe - Little Walter 
TTITLE14=Have A Good Time - Walter Horton 
TTITLE15=Evil - Howlin' Wolf 
TTITLE16=I'm Your Hoochie Coochie Man - Muddy Waters
TTITLE17=Third Degree - Eddie Boyd 
TTITLE18=It Takes Time - Otis Rush 
TTITLE19=Big Boss Man - Jimmy Reed 
EXTD=
EXTT0=
EXTT1=
EXTT2=
EXTT3=
EXTT4=
EXTT5=
EXTT6=
EXTT7=
EXTT8=
EXTT9=
EXTT10=
EXTT11=
EXTT12=
EXTT13=
EXTT14=
EXTT15=
EXTT16=
EXTT17=
EXTT18=
EXTT19=
PLAYORDER=
